<svg width="875" height="457" viewBox="0 0 875 457" fill="none" xmlns="http://www.w3.org/2000/svg">
<path d="M590.107 245.81L590.295 247.801L590.107 245.81ZM0.278989 450.386C0.217395 449.283 1.0615 448.339 2.16435 448.277C3.2672 448.216 4.21117 449.06 4.27276 450.163L0.278989 450.386ZM4.00557 439.163C3.99649 440.268 3.09372 441.156 1.98919 441.147C0.884659 441.138 -0.00337791 440.235 0.00570488 439.131L4.00557 439.163ZM0.487994 427.861C0.574389 426.759 1.53711 425.937 2.6383 426.023C3.73948 426.109 4.56213 427.072 4.47574 428.173L0.487994 427.861ZM5.73676 417.311C5.56756 418.403 4.54553 419.15 3.454 418.981C2.36247 418.812 1.61477 417.79 1.78397 416.698L5.73676 417.311ZM3.97122 405.569C4.22851 404.495 5.30788 403.832 6.38207 404.09C7.45626 404.347 8.11848 405.426 7.86119 406.501L3.97122 405.569ZM10.8352 396.039C10.4884 397.087 9.35706 397.657 8.30835 397.31C7.25964 396.963 6.69063 395.832 7.03744 394.783L10.8352 396.039ZM11.0781 384.151C11.5155 383.137 12.6924 382.669 13.7066 383.106C14.7209 383.544 15.1884 384.721 14.751 385.735L11.0781 384.151ZM19.5163 375.897C18.9918 376.869 17.7786 377.231 16.8065 376.707C15.8344 376.182 15.4716 374.969 15.9961 373.997L19.5163 375.897ZM21.7949 364.282C22.4012 363.359 23.6411 363.102 24.5644 363.708C25.4877 364.314 25.7447 365.554 25.1384 366.478L21.7949 364.282ZM31.5267 357.581C30.8462 358.451 29.5892 358.605 28.7192 357.924C27.8491 357.244 27.6955 355.987 28.376 355.117L31.5267 357.581ZM35.6972 346.483C36.4437 345.669 37.7088 345.614 38.523 346.36C39.3372 347.107 39.3921 348.372 38.6456 349.186L35.6972 346.483ZM46.3433 341.384C45.54 342.142 44.2742 342.105 43.516 341.302C42.7579 340.499 42.7945 339.233 43.5978 338.475L46.3433 341.384ZM52.0549 331.016C52.9068 330.313 54.1674 330.434 54.8705 331.286C55.5735 332.138 55.4529 333.398 54.601 334.101L52.0549 331.016ZM63.3247 327.343C62.4318 327.993 61.1808 327.796 60.5306 326.903C59.8804 326.01 60.0772 324.759 60.9702 324.109L63.3247 327.343ZM70.2155 317.762C71.1425 317.162 72.3809 317.426 72.9814 318.353C73.5819 319.28 73.3171 320.519 72.39 321.119L70.2155 317.762ZM81.8705 315.314C80.9147 315.868 79.691 315.542 79.1374 314.586C78.5838 313.63 78.9099 312.406 79.8657 311.853L81.8705 315.314ZM89.6393 306.482C90.6187 305.971 91.8267 306.351 92.3375 307.331C92.8482 308.31 92.4683 309.518 91.4889 310.029L89.6393 306.482ZM101.477 305.079C100.478 305.55 99.2866 305.121 98.816 304.122C98.3454 303.123 98.774 301.931 99.7733 301.46L101.477 305.079ZM109.931 296.903C110.947 296.469 112.122 296.94 112.556 297.956C112.99 298.971 112.519 300.147 111.503 300.581L109.931 296.903ZM121.827 296.372C120.797 296.772 119.638 296.262 119.238 295.232C118.838 294.203 119.348 293.044 120.377 292.644L121.827 296.372ZM130.818 288.765C131.858 288.395 133.002 288.94 133.371 289.981C133.741 291.022 133.196 292.165 132.155 292.534L130.818 288.765ZM142.72 288.949C141.669 289.29 140.541 288.715 140.2 287.664C139.86 286.613 140.435 285.485 141.486 285.145L142.72 288.949ZM152.117 281.843C153.176 281.528 154.289 282.132 154.604 283.19C154.919 284.249 154.316 285.363 153.257 285.677L152.117 281.843ZM164 282.62C162.934 282.91 161.835 282.282 161.544 281.216C161.254 280.15 161.882 279.051 162.948 278.76L164 282.62ZM173.709 275.95C174.78 275.682 175.866 276.333 176.134 277.405C176.402 278.476 175.751 279.562 174.68 279.831L173.709 275.95ZM185.553 277.223C184.476 277.47 183.403 276.798 183.156 275.721C182.908 274.645 183.581 273.572 184.657 273.324L185.553 277.223ZM195.51 270.932C196.591 270.704 197.652 271.395 197.88 272.476C198.108 273.556 197.417 274.618 196.337 274.846L195.51 270.932ZM207.272 272.631C206.188 272.841 205.138 272.133 204.928 271.048C204.717 269.964 205.425 268.914 206.51 268.704L207.272 272.631ZM217.464 266.664C218.551 266.47 219.59 267.195 219.784 268.282C219.978 269.369 219.254 270.408 218.166 270.602L217.464 266.664ZM229.142 268.724C228.052 268.903 227.024 268.164 226.845 267.074C226.666 265.984 227.405 264.956 228.495 264.777L229.142 268.724ZM239.527 263.043C240.62 262.879 241.638 263.631 241.803 264.723C241.967 265.816 241.215 266.834 240.123 266.999L239.527 263.043ZM251.128 265.412C250.034 265.563 249.025 264.798 248.873 263.704C248.722 262.61 249.487 261.6 250.581 261.449L251.128 265.412ZM261.668 259.983C262.764 259.845 263.765 260.621 263.903 261.717C264.042 262.812 263.266 263.813 262.17 263.952L261.668 259.983ZM273.202 262.616C272.105 262.743 271.112 261.957 270.985 260.859C270.858 259.762 271.645 258.77 272.742 258.643L273.202 262.616ZM283.859 257.412C284.958 257.296 285.942 258.092 286.059 259.191C286.175 260.289 285.378 261.274 284.28 261.39L283.859 257.412ZM295.34 260.273C294.24 260.379 293.263 259.573 293.157 258.474C293.051 257.374 293.856 256.397 294.956 256.291L295.34 260.273ZM306.077 255.268C307.177 255.171 308.148 255.985 308.244 257.085C308.341 258.185 307.527 259.156 306.427 259.252L306.077 255.268ZM317.522 258.324C316.421 258.412 315.457 257.59 315.37 256.489C315.282 255.388 316.103 254.424 317.204 254.337L317.522 258.324ZM328.331 253.493C329.433 253.414 330.39 254.242 330.469 255.344C330.549 256.446 329.72 257.403 328.619 257.483L328.331 253.493ZM339.731 256.721C338.629 256.792 337.677 255.957 337.606 254.855C337.534 253.753 338.369 252.801 339.471 252.729L339.731 256.721ZM350.612 252.041C351.715 251.976 352.661 252.817 352.726 253.92C352.79 255.023 351.949 255.969 350.846 256.034L350.612 252.041ZM361.953 255.417C360.85 255.475 359.909 254.627 359.851 253.524C359.793 252.421 360.64 251.48 361.743 251.422L361.953 255.417ZM372.909 250.866C374.012 250.815 374.949 251.667 375.001 252.77C375.053 253.874 374.2 254.81 373.097 254.862L372.909 250.866ZM384.179 254.369C383.076 254.416 382.144 253.559 382.097 252.455C382.051 251.351 382.908 250.419 384.012 250.373L384.179 254.369ZM395.211 249.93C396.315 249.888 397.243 250.75 397.284 251.854C397.325 252.957 396.464 253.886 395.36 253.927L395.211 249.93ZM406.453 253.537C405.349 253.573 404.425 252.708 404.388 251.604C404.352 250.5 405.217 249.575 406.321 249.539L406.453 253.537ZM417.512 249.189C418.616 249.157 419.537 250.026 419.57 251.13C419.602 252.234 418.733 253.155 417.629 253.188L417.512 249.189ZM428.739 252.88C427.635 252.909 426.717 252.037 426.688 250.933C426.659 249.829 427.531 248.91 428.635 248.881L428.739 252.88ZM439.809 248.605C440.913 248.58 441.829 249.454 441.855 250.558C441.881 251.662 441.006 252.578 439.902 252.604L439.809 248.605ZM451.032 252.357C449.928 252.381 449.013 251.504 448.99 250.4C448.967 249.296 449.843 248.382 450.948 248.358L451.032 252.357ZM462.103 248.133C463.207 248.112 464.12 248.99 464.141 250.094C464.163 251.198 463.285 252.111 462.18 252.132L462.103 248.133ZM473.327 251.923C472.222 251.943 471.311 251.065 471.291 249.96C471.27 248.856 472.149 247.944 473.254 247.924L473.327 251.923ZM484.399 247.723C485.503 247.704 486.415 248.583 486.434 249.688C486.454 250.792 485.575 251.703 484.47 251.723L484.399 247.723ZM495.619 251.523C494.515 251.543 493.603 250.664 493.583 249.56C493.563 248.455 494.442 247.544 495.547 247.524L495.619 251.523ZM506.703 247.316C507.807 247.294 508.719 248.172 508.741 249.276C508.762 250.381 507.884 251.293 506.78 251.315L506.703 247.316ZM517.899 251.088C516.795 251.112 515.88 250.236 515.856 249.132C515.833 248.028 516.709 247.113 517.813 247.089L517.899 251.088ZM529.01 246.829C530.114 246.801 531.032 247.674 531.059 248.778C531.087 249.882 530.215 250.8 529.11 250.828L529.01 246.829ZM540.135 250.524C539.031 250.558 538.109 249.69 538.076 248.586C538.042 247.482 538.91 246.56 540.014 246.526L540.135 250.524ZM551.286 246.147C552.389 246.106 553.318 246.967 553.359 248.071C553.401 249.175 552.539 250.103 551.436 250.144L551.286 246.147ZM562.538 249.675C561.435 249.728 560.498 248.876 560.446 247.773C560.393 246.669 561.245 245.732 562.349 245.68L562.538 249.675ZM573.402 245.082C574.504 245.014 575.453 245.853 575.521 246.956C575.588 248.058 574.75 249.007 573.647 249.075L573.402 245.082ZM584.923 248.274C583.822 248.364 582.856 247.545 582.766 246.444C582.676 245.343 583.495 244.378 584.596 244.287L584.923 248.274ZM595.526 243.263C596.625 243.149 597.608 243.947 597.722 245.046C597.836 246.145 597.037 247.127 595.938 247.241L595.526 243.263ZM607.036 245.993C605.939 246.127 604.943 245.346 604.809 244.249C604.676 243.153 605.457 242.156 606.554 242.023L607.036 245.993ZM617.558 240.584C618.652 240.43 619.663 241.193 619.816 242.287C619.97 243.381 619.207 244.392 618.113 244.545L617.558 240.584ZM629.149 242.891C628.058 243.065 627.033 242.322 626.858 241.231C626.684 240.141 627.427 239.115 628.518 238.941L629.149 242.891ZM639.474 237.078C640.561 236.882 641.601 237.604 641.797 238.691C641.993 239.778 641.271 240.818 640.184 241.015L639.474 237.078ZM651.116 238.925C650.033 239.144 648.978 238.443 648.76 237.361C648.541 236.278 649.241 235.223 650.324 235.004L651.116 238.925ZM661.22 232.679C662.298 232.436 663.368 233.113 663.611 234.191C663.853 235.269 663.176 236.339 662.098 236.581L661.22 232.679ZM672.88 234.027C671.808 234.294 670.723 233.641 670.456 232.57C670.189 231.498 670.842 230.413 671.914 230.146L672.88 234.027ZM682.728 227.315C683.793 227.023 684.893 227.649 685.186 228.714C685.479 229.779 684.853 230.88 683.787 231.172L682.728 227.315ZM694.5 228.085C693.443 228.404 692.327 227.806 692.007 226.748C691.688 225.691 692.286 224.575 693.344 224.255L694.5 228.085ZM703.908 220.915C704.956 220.568 706.088 221.137 706.435 222.185C706.782 223.234 706.213 224.365 705.164 224.712L703.908 220.915ZM715.767 221.041C714.728 221.417 713.581 220.88 713.205 219.841C712.829 218.803 713.367 217.656 714.405 217.28L715.767 221.041ZM724.71 213.382C725.737 212.976 726.899 213.48 727.305 214.507C727.71 215.535 727.207 216.697 726.179 217.102L724.71 213.382ZM736.557 212.819C735.543 213.256 734.366 212.788 733.929 211.774C733.492 210.76 733.96 209.583 734.975 209.146L736.557 212.819ZM745.086 204.596C746.086 204.127 747.277 204.557 747.746 205.556C748.216 206.556 747.786 207.747 746.786 208.217L745.086 204.596ZM756.808 203.304C755.825 203.807 754.62 203.418 754.117 202.434C753.614 201.451 754.003 200.246 754.987 199.743L756.808 203.304ZM764.739 194.535C765.704 193.998 766.922 194.344 767.46 195.309C767.998 196.274 767.651 197.492 766.687 198.029L764.739 194.535ZM776.404 192.373C775.46 192.947 774.23 192.647 773.656 191.703C773.082 190.759 773.382 189.529 774.326 188.955L776.404 192.373ZM783.656 183.03C784.576 182.42 785.818 182.671 786.428 183.591C787.039 184.512 786.788 185.753 785.867 186.364L783.656 183.03ZM795.063 179.985C794.169 180.634 792.918 180.435 792.269 179.54C791.621 178.646 791.82 177.396 792.714 176.747L795.063 179.985ZM801.482 170.091C802.347 169.404 803.605 169.548 804.292 170.413C804.98 171.277 804.836 172.535 803.971 173.223L801.482 170.091ZM812.62 166.016C811.789 166.743 810.525 166.658 809.798 165.826C809.071 164.994 809.156 163.731 809.988 163.004L812.62 166.016ZM818.128 155.532C818.923 154.765 820.189 154.788 820.956 155.583C821.723 156.378 821.7 157.644 820.905 158.411L818.128 155.532ZM828.792 150.4C828.038 151.207 826.772 151.25 825.965 150.496C825.158 149.742 825.115 148.476 825.869 147.669L828.792 150.4ZM833.171 139.413C833.88 138.566 835.141 138.453 835.989 139.162C836.836 139.871 836.948 141.132 836.24 141.979L833.171 139.413ZM843.205 133.15C842.546 134.036 841.293 134.222 840.407 133.563C839.52 132.905 839.335 131.652 839.993 130.765L843.205 133.15ZM846.286 121.733C846.889 120.808 848.128 120.546 849.054 121.15C849.979 121.753 850.24 122.992 849.637 123.917L846.286 121.733ZM855.482 114.294C854.939 115.257 853.72 115.597 852.757 115.054C851.795 114.512 851.455 113.292 851.998 112.33L855.482 114.294ZM857.073 102.577C857.549 101.58 858.743 101.158 859.74 101.634C860.737 102.11 861.159 103.304 860.682 104.301L857.073 102.577ZM865.178 93.964C864.774 94.9921 863.613 95.4983 862.585 95.0945C861.557 94.6908 861.051 93.53 861.455 92.5019L865.178 93.964ZM865.083 82.1432C865.408 81.0876 866.528 80.4957 867.583 80.821C868.639 81.1464 869.231 82.2658 868.906 83.3214L865.083 82.1432ZM871.802 72.4199C871.562 73.4979 870.492 74.1765 869.414 73.9357C868.336 73.6949 867.658 72.6258 867.899 71.5478L871.802 72.4199ZM869.843 60.771C869.993 59.6767 871.002 58.9114 872.096 59.0616C873.19 59.2118 873.956 60.2207 873.805 61.315L869.843 60.771ZM874.854 50.0408C874.801 51.144 873.863 51.9951 872.76 51.9417C871.657 51.8882 870.806 50.9505 870.859 49.8473L874.854 50.0408ZM870.887 38.8958C870.838 37.7923 871.693 36.8582 872.796 36.8094C873.9 36.7606 874.834 37.6156 874.883 38.7191L870.887 38.8958ZM873.838 27.4473C873.993 28.5409 873.233 29.5536 872.14 29.7094C871.046 29.8652 870.033 29.105 869.878 28.0115L873.838 27.4473ZM867.793 17.2993C867.527 16.2273 868.18 15.1423 869.252 14.8758C870.323 14.6093 871.409 15.2622 871.675 16.3342L867.793 17.2993ZM868.353 5.47665C868.733 6.51392 868.2 7.6626 867.163 8.04233C866.125 8.42206 864.977 7.88901 864.597 6.85178L868.353 5.47665ZM0.69214 456.173C0.523318 454.226 0.385728 452.297 0.278989 450.386L4.27276 450.163C4.37719 452.032 4.51185 453.92 4.67719 455.827L0.69214 456.173ZM0.00570488 439.131C0.0372169 435.299 0.199136 431.542 0.487994 427.861L4.47574 428.173C4.19436 431.76 4.03633 435.423 4.00557 439.163L0.00570488 439.131ZM1.78397 416.698C2.37209 412.904 3.10265 409.195 3.97122 405.569L7.86119 406.501C7.01823 410.02 6.30851 413.623 5.73676 417.311L1.78397 416.698ZM7.03744 394.783C8.23914 391.149 9.58781 387.606 11.0781 384.151L14.751 385.735C13.3071 389.082 12.0001 392.516 10.8352 396.039L7.03744 394.783ZM15.9961 373.997C17.7913 370.67 19.7262 367.432 21.7949 364.282L25.1384 366.478C23.1319 369.533 21.2561 372.672 19.5163 375.897L15.9961 373.997ZM28.376 355.117C30.6922 352.155 33.1346 349.278 35.6972 346.483L38.6456 349.186C36.1515 351.907 33.7768 354.704 31.5267 357.581L28.376 355.117ZM43.5978 338.475C46.3107 335.914 49.1315 333.429 52.0549 331.016L54.601 334.101C51.7434 336.46 48.9893 338.887 46.3433 341.384L43.5978 338.475ZM60.9702 324.109C63.9637 321.929 67.0471 319.814 70.2155 317.762L72.39 321.119C69.2802 323.134 66.2571 325.207 63.3247 327.343L60.9702 324.109ZM79.8657 311.853C83.0511 310.008 86.3104 308.218 89.6393 306.482L91.4889 310.029C88.2101 311.739 85.0028 313.5 81.8705 315.314L79.8657 311.853ZM99.7733 301.46C103.099 299.894 106.486 298.375 109.931 296.903L111.503 300.581C108.101 302.035 104.758 303.534 101.477 305.079L99.7733 301.46ZM120.377 292.644C123.808 291.31 127.289 290.017 130.818 288.765L132.155 292.534C128.663 293.774 125.219 295.053 121.827 296.372L120.377 292.644ZM141.486 285.145C144.989 284.008 148.534 282.908 152.117 281.843L153.257 285.677C149.704 286.733 146.191 287.824 142.72 288.949L141.486 285.145ZM162.948 278.76C166.502 277.792 170.09 276.856 173.709 275.95L174.68 279.831C171.087 280.73 167.526 281.659 164 282.62L162.948 278.76ZM184.657 273.324C188.248 272.499 191.866 271.702 195.51 270.932L196.337 274.846C192.715 275.611 189.12 276.403 185.553 277.223L184.657 273.324ZM206.51 268.704C210.14 267.999 213.792 267.32 217.464 266.664L218.166 270.602C214.514 271.254 210.882 271.93 207.272 272.631L206.51 268.704ZM228.495 264.777C232.156 264.177 235.834 263.599 239.527 263.043L240.123 266.999C236.446 267.552 232.786 268.127 229.142 268.724L228.495 264.777ZM250.581 261.449C254.265 260.941 257.961 260.452 261.668 259.983L262.17 263.952C258.478 264.419 254.797 264.905 251.128 265.412L250.581 261.449ZM272.742 258.643C276.44 258.215 280.147 257.805 283.859 257.412L284.28 261.39C280.58 261.781 276.887 262.19 273.202 262.616L272.742 258.643ZM294.956 256.291C298.66 255.934 302.367 255.593 306.077 255.268L306.427 259.252C302.728 259.577 299.032 259.917 295.34 260.273L294.956 256.291ZM317.204 254.337C320.914 254.041 324.623 253.76 328.331 253.493L328.619 257.483C324.921 257.749 321.221 258.03 317.522 258.324L317.204 254.337ZM339.471 252.729C343.19 252.487 346.904 252.258 350.612 252.041L350.846 256.034C347.146 256.251 343.441 256.479 339.731 256.721L339.471 252.729ZM361.743 251.422C365.474 251.226 369.197 251.041 372.909 250.866L373.097 254.862C369.392 255.036 365.677 255.221 361.953 255.417L361.743 251.422ZM384.012 250.373C387.759 250.216 391.492 250.068 395.211 249.93L395.36 253.927C391.647 254.065 387.92 254.212 384.179 254.369L384.012 250.373ZM406.321 249.539C410.07 249.415 413.801 249.298 417.512 249.189L417.629 253.188C413.923 253.297 410.197 253.413 406.453 253.537L406.321 249.539ZM428.635 248.881C432.384 248.783 436.11 248.692 439.809 248.605L439.902 252.604C436.206 252.691 432.485 252.782 428.739 252.88L428.635 248.881ZM450.948 248.358C454.697 248.279 458.417 248.205 462.103 248.133L462.18 252.132C458.496 252.204 454.779 252.278 451.032 252.357L450.948 248.358ZM473.254 247.924C477.009 247.855 480.725 247.789 484.399 247.723L484.47 251.723C480.796 251.788 477.081 251.855 473.327 251.923L473.254 247.924ZM495.547 247.524C499.316 247.455 503.036 247.386 506.703 247.316L506.78 251.315C503.111 251.386 499.39 251.455 495.619 251.523L495.547 247.524ZM517.813 247.089C521.612 247.007 525.346 246.921 529.01 246.829L529.11 250.828C525.44 250.92 521.702 251.006 517.899 251.088L517.813 247.089ZM540.014 246.526C543.862 246.41 547.621 246.285 551.286 246.147L551.436 250.144C547.76 250.282 543.991 250.408 540.135 250.524L540.014 246.526ZM562.349 245.68C566.157 245.499 569.844 245.301 573.402 245.082L573.647 249.075C570.068 249.295 566.363 249.494 562.538 249.675L562.349 245.68ZM584.596 244.287C586.413 244.139 588.188 243.983 589.918 243.819L590.295 247.801C588.547 247.967 586.755 248.124 584.923 248.274L584.596 244.287ZM589.918 243.819C591.798 243.64 593.667 243.455 595.526 243.263L595.938 247.241C594.068 247.435 592.187 247.622 590.295 247.801L589.918 243.819ZM606.554 242.023C610.265 241.572 613.933 241.092 617.558 240.584L618.113 244.545C614.464 245.057 610.772 245.54 607.036 245.993L606.554 242.023ZM628.518 238.941C632.217 238.35 635.869 237.729 639.474 237.078L640.184 241.015C636.553 241.67 632.874 242.295 629.149 242.891L628.518 238.941ZM650.324 235.004C654.007 234.26 657.639 233.485 661.22 232.679L662.098 236.581C658.488 237.393 654.828 238.175 651.116 238.925L650.324 235.004ZM671.914 230.146C675.574 229.234 679.179 228.29 682.728 227.315L683.787 231.172C680.207 232.156 676.572 233.108 672.88 234.027L671.914 230.146ZM693.344 224.255C696.925 223.174 700.446 222.06 703.908 220.915L705.164 224.712C701.669 225.869 698.114 226.994 694.5 228.085L693.344 224.255ZM714.405 217.28C717.904 216.013 721.339 214.714 724.71 213.382L726.179 217.102C722.772 218.448 719.302 219.762 715.767 221.041L714.405 217.28ZM734.975 209.146C738.416 207.663 741.786 206.146 745.086 204.596L746.786 208.217C743.448 209.785 740.038 211.32 736.557 212.819L734.975 209.146ZM754.987 199.743C758.315 198.04 761.566 196.304 764.739 194.535L766.687 198.029C763.471 199.821 760.179 201.58 756.808 203.304L754.987 199.743ZM774.326 188.955C777.522 187.013 780.631 185.037 783.656 183.03L785.867 186.364C782.798 188.4 779.644 190.404 776.404 192.373L774.326 188.955ZM792.714 176.747C795.731 174.559 798.653 172.34 801.482 170.091L803.971 173.223C801.095 175.508 798.126 177.763 795.063 179.985L792.714 176.747ZM809.988 163.004C812.805 160.542 815.518 158.05 818.128 155.532L820.905 158.411C818.248 160.975 815.486 163.511 812.62 166.016L809.988 163.004ZM825.869 147.669C828.417 144.941 830.851 142.187 833.171 139.413L836.24 141.979C833.872 144.81 831.389 147.619 828.792 150.4L825.869 147.669ZM839.993 130.765C842.216 127.771 844.313 124.759 846.286 121.733L849.637 123.917C847.619 127.012 845.475 130.092 843.205 133.15L839.993 130.765ZM851.998 112.33C853.826 109.086 855.517 105.833 857.073 102.577L860.682 104.301C859.087 107.64 857.355 110.973 855.482 114.294L851.998 112.33ZM861.455 92.5019C862.813 89.0437 864.021 85.5883 865.083 82.1432L868.906 83.3214C867.814 86.8635 866.572 90.4135 865.178 93.964L861.455 92.5019ZM867.899 71.5478C868.706 67.933 869.353 64.3379 869.843 60.771L873.805 61.315C873.301 64.9933 872.634 68.6979 871.802 72.4199L867.899 71.5478ZM870.859 49.8473C871.038 46.1522 871.046 42.4984 870.887 38.8958L874.883 38.7191C875.047 42.4466 875.039 46.224 874.854 50.0408L870.859 49.8473ZM869.878 28.0115C869.359 24.3701 868.662 20.7956 867.793 17.2993L871.675 16.3342C872.578 19.9646 873.3 23.6729 873.838 27.4473L869.878 28.0115ZM864.597 6.85178C863.97 5.14035 863.299 3.45267 862.584 1.79019L866.259 0.209778C867.003 1.94037 867.701 3.69653 868.353 5.47665L864.597 6.85178Z" fill="#F24C4C"/>
</svg>
