<svg width="942" height="431" viewBox="0 0 942 431" fill="none" xmlns="http://www.w3.org/2000/svg">
<path d="M635.346 199.179L635.511 197.186L635.346 199.179ZM0.285323 6.5229C0.216825 7.62535 1.055 8.57458 2.15745 8.64308C3.25989 8.71158 4.20913 7.8734 4.27762 6.77095L0.285323 6.5229ZM4.01445 17.5763C3.99829 16.4718 3.08986 15.5896 1.98541 15.6057C0.88096 15.6219 -0.0012784 16.5303 0.0148771 17.6348L4.01445 17.5763ZM0.643796 28.7992C0.753077 29.8984 1.7327 30.7008 2.83185 30.5915C3.93101 30.4823 4.73345 29.5026 4.62417 28.4035L0.643796 28.7992ZM6.15825 39.0089C5.95051 37.9241 4.90265 37.213 3.81779 37.4208C2.73293 37.6285 2.02189 38.6764 2.22963 39.7612L6.15825 39.0089ZM4.87097 50.6924C5.18219 51.7522 6.29364 52.359 7.35346 52.0478C8.41328 51.7366 9.02013 50.6251 8.7089 49.5653L4.87097 50.6924ZM12.2362 59.7122C11.8227 58.688 10.6572 58.1928 9.63295 58.6064C8.6087 59.0199 8.11359 60.1854 8.52709 61.2096L12.2362 59.7122ZM13.2258 71.3725C13.738 72.3512 14.9465 72.7293 15.9252 72.2171C16.9038 71.7049 17.2819 70.4964 16.7697 69.5177L13.2258 71.3725ZM22.2177 78.813C21.6148 77.8875 20.3758 77.626 19.4503 78.229C18.5248 78.8319 18.2633 80.0709 18.8662 80.9964L22.2177 78.813ZM25.4061 90.0963C26.0902 90.9635 27.3478 91.112 28.2151 90.4279C29.0823 89.7438 29.2307 88.4862 28.5466 87.6189L25.4061 90.0963ZM35.5673 95.7863C34.8136 94.9788 33.548 94.9352 32.7406 95.6889C31.9331 96.4426 31.8895 97.7082 32.6432 98.5157L35.5673 95.7863ZM40.5658 106.371C41.3787 107.119 42.6439 107.066 43.3917 106.253C44.1396 105.44 44.0868 104.175 43.2739 103.427L40.5658 106.371ZM51.516 110.496C50.6538 109.805 49.3952 109.944 48.7047 110.806C48.0142 111.669 48.1534 112.927 49.0155 113.618L51.516 110.496ZM57.8775 120.274C58.7802 120.91 60.028 120.695 60.6646 119.792C61.3012 118.889 61.0855 117.641 60.1828 117.005L57.8775 120.274ZM69.3082 123.065C68.3719 122.479 67.1378 122.763 66.5518 123.699C65.9657 124.635 66.2495 125.87 67.1858 126.456L69.3082 123.065ZM76.6594 132.066C77.6228 132.607 78.8418 132.264 79.382 131.3C79.9222 130.337 79.5791 129.118 78.6156 128.577L76.6594 132.066ZM88.3468 133.751C87.3606 133.254 86.1579 133.65 85.6604 134.636C85.163 135.623 85.5592 136.825 86.5454 137.323L88.3468 133.751ZM96.4246 142.066C97.4292 142.525 98.6158 142.083 99.075 141.078C99.5342 140.074 99.0921 138.887 98.0875 138.428L96.4246 142.066ZM108.218 142.841C107.198 142.417 106.027 142.901 105.604 143.921C105.18 144.941 105.664 146.111 106.684 146.535L108.218 142.841ZM116.851 150.569C117.884 150.961 119.038 150.441 119.43 149.409C119.822 148.376 119.302 147.221 118.269 146.829L116.851 150.569ZM128.654 150.596C127.61 150.234 126.471 150.787 126.109 151.83C125.747 152.874 126.299 154.013 127.343 154.375L128.654 150.596ZM137.732 157.829C138.784 158.165 139.909 157.583 140.244 156.531C140.58 155.478 139.998 154.353 138.946 154.018L137.732 157.829ZM149.488 157.239C148.428 156.928 147.317 157.536 147.006 158.596C146.696 159.656 147.304 160.767 148.364 161.077L149.488 157.239ZM158.934 164.05C160 164.338 161.098 163.707 161.386 162.64C161.674 161.574 161.043 160.476 159.977 160.188L158.934 164.05ZM170.614 162.947C169.542 162.68 168.457 163.332 168.19 164.404C167.923 165.476 168.576 166.561 169.648 166.828L170.614 162.947ZM180.37 169.394C181.446 169.642 182.52 168.97 182.767 167.894C183.015 166.817 182.343 165.744 181.266 165.496L180.37 169.394ZM191.962 167.862C190.882 167.632 189.82 168.322 189.59 169.402C189.36 170.483 190.05 171.545 191.13 171.775L191.962 167.862ZM201.976 173.993C203.06 174.206 204.112 173.5 204.325 172.416C204.538 171.332 203.832 170.281 202.748 170.068L201.976 173.993ZM213.481 172.098C212.395 171.901 211.353 172.621 211.156 173.708C210.958 174.795 211.679 175.836 212.765 176.034L213.481 172.098ZM223.689 177.946C224.779 178.129 225.81 177.395 225.994 176.306C226.177 175.217 225.443 174.185 224.353 174.002L223.689 177.946ZM235.132 175.748C234.041 175.578 233.018 176.324 232.848 177.416C232.678 178.507 233.425 179.53 234.517 179.7L235.132 175.748ZM245.434 181.336C246.527 181.494 247.541 180.735 247.699 179.642C247.857 178.548 247.098 177.535 246.005 177.377L245.434 181.336ZM256.881 178.884C255.786 178.738 254.781 179.508 254.635 180.603C254.489 181.698 255.258 182.703 256.353 182.849L256.881 178.884ZM267.268 184.248C268.364 184.382 269.363 183.603 269.498 182.507C269.633 181.411 268.853 180.412 267.757 180.277L267.268 184.248ZM278.697 181.572C277.599 181.447 276.609 182.236 276.484 183.333C276.359 184.431 277.148 185.421 278.245 185.546L278.697 181.572ZM289.167 186.738C290.266 186.853 291.25 186.056 291.365 184.957C291.48 183.859 290.682 182.875 289.584 182.76L289.167 186.738ZM300.522 183.86C299.423 183.754 298.445 184.559 298.339 185.659C298.233 186.758 299.039 187.735 300.138 187.842L300.522 183.86ZM311.107 188.857C312.207 188.955 313.178 188.142 313.276 187.042C313.373 185.941 312.56 184.97 311.46 184.873L311.107 188.857ZM322.401 185.803C321.3 185.714 320.335 186.533 320.245 187.634C320.156 188.735 320.975 189.7 322.076 189.79L322.401 185.803ZM333.063 190.647C334.164 190.73 335.124 189.903 335.206 188.802C335.288 187.7 334.462 186.741 333.361 186.658L333.063 190.647ZM344.32 187.441C343.218 187.366 342.263 188.198 342.188 189.3C342.113 190.402 342.945 191.357 344.047 191.432L344.32 187.441ZM355.03 192.149C356.132 192.217 357.082 191.379 357.15 190.277C357.219 189.174 356.381 188.225 355.279 188.156L355.03 192.149ZM366.256 188.809C365.153 188.747 364.208 189.59 364.146 190.693C364.083 191.796 364.927 192.74 366.029 192.803L366.256 188.809ZM377.025 193.398C378.128 193.454 379.068 192.606 379.125 191.503C379.182 190.4 378.333 189.46 377.23 189.403L377.025 193.398ZM388.188 189.94C387.085 189.889 386.149 190.742 386.097 191.845C386.046 192.948 386.899 193.884 388.002 193.936L388.188 189.94ZM399.029 194.425C400.133 194.472 401.065 193.615 401.112 192.511C401.158 191.407 400.301 190.475 399.198 190.429L399.029 194.425ZM410.154 190.867C409.05 190.825 408.121 191.686 408.079 192.79C408.038 193.894 408.898 194.822 410.002 194.864L410.154 190.867ZM421.026 195.261C422.13 195.299 423.055 194.434 423.093 193.33C423.13 192.227 422.266 191.301 421.162 191.263L421.026 195.261ZM432.149 191.619C431.045 191.585 430.123 192.452 430.089 193.557C430.055 194.661 430.923 195.583 432.027 195.617L432.149 191.619ZM443.001 195.935C444.105 195.965 445.025 195.095 445.055 193.991C445.085 192.886 444.215 191.967 443.11 191.936L443.001 195.935ZM454.146 192.223C453.042 192.196 452.125 193.069 452.098 194.173C452.071 195.278 452.944 196.195 454.048 196.222L454.146 192.223ZM464.979 196.477C466.084 196.501 466.999 195.626 467.023 194.522C467.048 193.417 466.172 192.502 465.068 192.478L464.979 196.477ZM476.135 192.71C475.031 192.688 474.118 193.566 474.096 194.67C474.074 195.774 474.951 196.688 476.056 196.71L476.135 192.71ZM487.018 196.919C488.122 196.939 489.034 196.06 489.054 194.956C489.074 193.851 488.195 192.94 487.091 192.919L487.018 196.919ZM498.113 193.113C497.009 193.094 496.098 193.974 496.08 195.079C496.061 196.183 496.941 197.094 498.046 197.112L498.113 193.113ZM509.048 197.293C510.152 197.311 511.062 196.43 511.08 195.325C511.098 194.221 510.217 193.311 509.112 193.293L509.048 197.293ZM520.084 193.467C518.98 193.449 518.07 194.331 518.053 195.435C518.036 196.539 518.917 197.449 520.021 197.466L520.084 193.467ZM531.066 197.639C532.17 197.656 533.08 196.775 533.097 195.671C533.115 194.566 532.233 193.657 531.129 193.639L531.066 197.639ZM542.06 193.815C540.956 193.797 540.045 194.678 540.027 195.782C540.009 196.886 540.889 197.796 541.994 197.815L542.06 193.815ZM553.071 198.006C554.175 198.026 555.087 197.146 555.107 196.042C555.127 194.938 554.247 194.026 553.143 194.006L553.071 198.006ZM564.061 194.215C562.956 194.193 562.043 195.07 562.02 196.174C561.998 197.279 562.875 198.192 563.979 198.215L564.061 194.215ZM575.058 198.459C576.162 198.485 577.079 197.611 577.105 196.507C577.131 195.403 576.258 194.486 575.153 194.46L575.058 198.459ZM586.105 194.746C585.001 194.714 584.081 195.584 584.049 196.688C584.018 197.792 584.887 198.713 585.991 198.744L586.105 194.746ZM597.001 199.093C598.105 199.132 599.031 198.268 599.07 197.164C599.109 196.06 598.245 195.134 597.141 195.095L597.001 199.093ZM608.191 195.529C607.087 195.48 606.154 196.336 606.105 197.439C606.057 198.543 606.912 199.477 608.016 199.525L608.191 195.529ZM618.807 200.058C619.91 200.12 620.854 199.275 620.915 198.172C620.977 197.07 620.132 196.126 619.029 196.064L618.807 200.058ZM630.22 196.776C629.119 196.696 628.161 197.524 628.081 198.626C628.001 199.727 628.829 200.685 629.931 200.765L630.22 196.776ZM640.631 201.644C641.731 201.743 642.703 200.931 642.802 199.831C642.901 198.731 642.089 197.759 640.989 197.66L640.631 201.644ZM651.781 198.706C650.682 198.591 649.699 199.389 649.585 200.488C649.47 201.587 650.268 202.57 651.367 202.684L651.781 198.706ZM662.013 203.868C663.11 203.998 664.105 203.215 664.235 202.118C664.365 201.021 663.581 200.026 662.484 199.896L662.013 203.868ZM673.28 201.259C672.185 201.112 671.179 201.881 671.032 202.975C670.886 204.07 671.654 205.077 672.749 205.223L673.28 201.259ZM683.326 206.723C684.418 206.887 685.436 206.134 685.6 205.042C685.764 203.949 685.011 202.931 683.918 202.767L683.326 206.723ZM694.689 204.471C693.599 204.289 692.569 205.025 692.387 206.115C692.205 207.204 692.941 208.235 694.031 208.416L694.689 204.471ZM704.546 210.26C705.632 210.46 706.675 209.741 706.875 208.655C707.075 207.568 706.356 206.526 705.27 206.326L704.546 210.26ZM715.98 208.396C714.897 208.176 713.842 208.876 713.622 209.959C713.403 211.041 714.103 212.097 715.185 212.316L715.98 208.396ZM725.64 214.535C726.719 214.774 727.787 214.094 728.026 213.015C728.266 211.937 727.586 210.869 726.507 210.63L725.64 214.535ZM737.115 213.092C736.042 212.832 734.961 213.491 734.7 214.565C734.44 215.638 735.099 216.719 736.172 216.98L737.115 213.092ZM746.562 219.611C747.63 219.893 748.724 219.256 749.006 218.188C749.288 217.12 748.651 216.026 747.583 215.743L746.562 219.611ZM758.043 218.626C756.981 218.321 755.873 218.934 755.568 219.996C755.263 221.058 755.877 222.165 756.938 222.47L758.043 218.626ZM767.245 225.556C768.3 225.884 769.421 225.296 769.75 224.241C770.079 223.187 769.49 222.066 768.436 221.737L767.245 225.556ZM778.692 225.065C777.645 224.712 776.51 225.274 776.157 226.32C775.803 227.367 776.365 228.502 777.412 228.855L778.692 225.065ZM787.608 232.44C788.645 232.82 789.794 232.287 790.173 231.249C790.553 230.212 790.02 229.063 788.982 228.684L787.608 232.44ZM799.07 232.524C798.043 232.117 796.881 232.62 796.475 233.647C796.068 234.674 796.571 235.836 797.598 236.243L799.07 232.524ZM807.543 240.338C808.558 240.773 809.734 240.303 810.169 239.288C810.603 238.272 810.133 237.097 809.118 236.662L807.543 240.338ZM819.052 241.09C818.05 240.625 816.861 241.061 816.397 242.063C815.932 243.065 816.368 244.254 817.37 244.719L819.052 241.09ZM826.988 249.359C827.975 249.854 829.177 249.456 829.672 248.469C830.168 247.481 829.769 246.28 828.782 245.784L826.988 249.359ZM838.419 250.82C837.449 250.293 836.234 250.651 835.706 251.621C835.178 252.592 835.537 253.806 836.507 254.334L838.419 250.82ZM845.861 259.637C846.812 260.199 848.039 259.884 848.6 258.933C849.162 257.982 848.847 256.755 847.896 256.193L845.861 259.637ZM857.134 261.885C856.205 261.288 854.967 261.557 854.37 262.486C853.773 263.416 854.043 264.653 854.972 265.25L857.134 261.885ZM863.829 271.191C864.734 271.824 865.981 271.605 866.615 270.7C867.248 269.795 867.029 268.548 866.124 267.914L863.829 271.191ZM874.918 274.355C874.041 273.683 872.785 273.849 872.114 274.726C871.442 275.603 871.608 276.858 872.485 277.53L874.918 274.355ZM880.846 284.245C881.691 284.957 882.953 284.849 883.665 284.004C884.376 283.159 884.268 281.897 883.423 281.186L880.846 284.245ZM891.585 288.405C890.776 287.653 889.51 287.699 888.758 288.508C888.006 289.316 888.052 290.582 888.86 291.334L891.585 288.405ZM896.49 298.811C897.258 299.605 898.524 299.626 899.318 298.858C900.112 298.09 900.133 296.824 899.365 296.03L896.49 298.811ZM906.718 304.074C905.997 303.238 904.734 303.145 903.898 303.866C903.061 304.588 902.968 305.851 903.689 306.687L906.718 304.074ZM910.406 314.969C911.075 315.848 912.33 316.019 913.209 315.35C914.088 314.681 914.258 313.426 913.59 312.547L910.406 314.969ZM919.914 321.451C919.305 320.529 918.064 320.276 917.143 320.885C916.221 321.494 915.968 322.735 916.577 323.657L919.914 321.451ZM922.132 332.742C922.673 333.704 923.893 334.045 924.856 333.504C925.818 332.962 926.159 331.742 925.618 330.78L922.132 332.742ZM930.619 340.517C930.153 339.516 928.963 339.081 927.962 339.547C926.96 340.013 926.526 341.203 926.992 342.204L930.619 340.517ZM931.074 352.012C931.455 353.049 932.604 353.58 933.641 353.199C934.678 352.818 935.209 351.668 934.828 350.632L931.074 352.012ZM938.153 361.078C937.866 360.011 936.768 359.379 935.702 359.666C934.635 359.953 934.003 361.051 934.29 362.117L938.153 361.078ZM936.555 372.456C936.739 373.545 937.771 374.279 938.861 374.095C939.95 373.911 940.684 372.879 940.5 371.79L936.555 372.456ZM941.78 382.705C941.708 381.602 940.756 380.767 939.654 380.839C938.552 380.911 937.717 381.863 937.789 382.965L941.78 382.705ZM937.911 393.548C937.864 394.651 938.72 395.585 939.823 395.632C940.927 395.68 941.86 394.824 941.907 393.72L937.911 393.548ZM940.814 404.678C940.987 403.587 940.242 402.563 939.151 402.391C938.06 402.218 937.036 402.963 936.863 404.054L940.814 404.678ZM934.612 414.353C934.313 415.416 934.932 416.521 935.995 416.82C937.058 417.119 938.163 416.5 938.462 415.437L934.612 414.353ZM934.837 425.858C935.262 424.839 934.781 423.667 933.762 423.242C932.743 422.816 931.571 423.297 931.146 424.317L934.837 425.858ZM0.747067 0.802886C0.556411 2.72795 0.40265 4.63456 0.285323 6.5229L4.27762 6.77095C4.39187 4.93218 4.54168 3.0743 4.72759 1.19711L0.747067 0.802886ZM0.0148771 17.6348C0.0704601 21.4346 0.281537 25.1556 0.643796 28.7992L4.62417 28.4035C4.27331 24.8746 4.06842 21.2661 4.01445 17.5763L0.0148771 17.6348ZM2.22963 39.7612C2.94408 43.4922 3.82639 47.1353 4.87097 50.6924L8.7089 49.5653C7.70086 46.1326 6.84871 42.6146 6.15825 39.0089L2.22963 39.7612ZM8.52709 61.2096C9.9308 64.6866 11.4992 68.0735 13.2258 71.3725L16.7697 69.5177C15.1033 66.3337 13.5902 63.0661 12.2362 59.7122L8.52709 61.2096ZM18.8662 80.9964C20.8979 84.1152 23.0801 87.1476 25.4061 90.0963L28.5466 87.6189C26.2931 84.7623 24.1816 81.8277 22.2177 78.813L18.8662 80.9964ZM32.6432 98.5157C35.1579 101.21 37.8008 103.828 40.5658 106.371L43.2739 103.427C40.5806 100.95 38.01 98.4033 35.5673 95.7863L32.6432 98.5157ZM49.0155 113.618C51.8659 115.901 54.8216 118.119 57.8775 120.274L60.1828 117.005C57.1905 114.895 54.3001 112.725 51.516 110.496L49.0155 113.618ZM67.1858 126.456C70.2595 128.38 73.4188 130.249 76.6594 132.066L78.6156 128.577C75.4287 126.791 72.3249 124.954 69.3082 123.065L67.1858 126.456ZM86.5454 137.323C89.7699 138.949 93.0641 140.53 96.4246 142.066L98.0875 138.428C94.7717 136.912 91.5237 135.354 88.3468 133.751L86.5454 137.323ZM106.684 146.535C110.017 147.919 113.407 149.263 116.851 150.569L118.269 146.829C114.862 145.537 111.511 144.208 108.218 142.841L106.684 146.535ZM127.343 154.375C130.759 155.56 134.223 156.711 137.732 157.829L138.946 154.018C135.468 152.91 132.037 151.77 128.654 150.596L127.343 154.375ZM148.364 161.077C151.848 162.098 155.372 163.089 158.934 164.05L159.977 160.188C156.441 159.234 152.944 158.251 149.488 157.239L148.364 161.077ZM169.648 166.828C173.189 167.71 176.764 168.565 180.37 169.394L181.266 165.496C177.683 164.672 174.132 163.822 170.614 162.947L169.648 166.828ZM191.13 171.775C194.719 172.538 198.335 173.277 201.976 173.993L202.748 170.068C199.126 169.356 195.53 168.621 191.962 167.862L191.13 171.775ZM212.765 176.034C216.385 176.693 220.027 177.33 223.689 177.946L224.353 174.002C220.708 173.388 217.083 172.754 213.481 172.098L212.765 176.034ZM234.517 179.7C238.139 180.264 241.778 180.809 245.434 181.336L246.005 177.377C242.364 176.852 238.739 176.309 235.132 175.748L234.517 179.7ZM256.353 182.849C259.978 183.332 263.617 183.798 267.268 184.248L267.757 180.277C264.119 179.83 260.493 179.365 256.881 178.884L256.353 182.849ZM278.245 185.546C281.877 185.959 285.518 186.356 289.167 186.738L289.584 182.76C285.946 182.379 282.316 181.983 278.697 181.572L278.245 185.546ZM300.138 187.842C303.788 188.194 307.445 188.532 311.107 188.857L311.46 184.873C307.809 184.549 304.162 184.211 300.522 183.86L300.138 187.842ZM322.076 189.79C325.736 190.088 329.399 190.374 333.063 190.647L333.361 186.658C329.705 186.385 326.051 186.101 322.401 185.803L322.076 189.79ZM344.047 191.432C347.709 191.682 351.37 191.921 355.03 192.149L355.279 188.156C351.627 187.929 347.973 187.691 344.32 187.441L344.047 191.432ZM366.029 192.803C369.699 193.011 373.364 193.209 377.025 193.398L377.23 189.403C373.577 189.215 369.918 189.017 366.256 188.809L366.029 192.803ZM388.002 193.936C391.686 194.108 395.362 194.271 399.029 194.425L399.198 190.429C395.536 190.274 391.866 190.112 388.188 189.94L388.002 193.936ZM410.002 194.864C413.688 195.004 417.363 195.136 421.026 195.261L421.162 191.263C417.505 191.139 413.835 191.007 410.154 190.867L410.002 194.864ZM432.027 195.617C435.701 195.729 439.359 195.835 443.001 195.935L443.11 191.936C439.473 191.837 435.818 191.731 432.149 191.619L432.027 195.617ZM454.048 196.222C457.712 196.312 461.356 196.397 464.979 196.477L465.068 192.478C461.448 192.398 457.807 192.313 454.146 192.223L454.048 196.222ZM476.056 196.71C479.735 196.783 483.39 196.853 487.018 196.919L487.091 192.919C483.465 192.853 479.812 192.784 476.135 192.71L476.056 196.71ZM498.046 197.112C501.745 197.175 505.413 197.235 509.048 197.293L509.112 193.293C505.478 193.235 501.811 193.175 498.113 193.113L498.046 197.112ZM520.021 197.466C523.743 197.524 527.425 197.581 531.066 197.639L531.129 193.639C527.488 193.582 523.805 193.525 520.084 193.467L520.021 197.466ZM541.994 197.815C545.737 197.877 549.43 197.94 553.071 198.006L553.143 194.006C549.5 193.94 545.805 193.877 542.06 193.815L541.994 197.815ZM563.979 198.215C567.737 198.291 571.431 198.372 575.058 198.459L575.153 194.46C571.521 194.373 567.822 194.292 564.061 194.215L563.979 198.215ZM585.991 198.744C589.746 198.852 593.417 198.967 597.001 199.093L597.141 195.095C593.548 194.969 589.867 194.853 586.105 194.746L585.991 198.744ZM608.016 199.525C611.726 199.688 615.325 199.865 618.807 200.058L619.029 196.064C615.53 195.87 611.915 195.692 608.191 195.529L608.016 199.525ZM629.931 200.765C631.72 200.895 633.47 201.031 635.18 201.173L635.511 197.186C633.786 197.043 632.022 196.906 630.22 196.776L629.931 200.765ZM635.18 201.173C637.006 201.324 638.823 201.481 640.631 201.644L640.989 197.66C639.172 197.496 637.346 197.339 635.511 197.186L635.18 201.173ZM651.367 202.684C654.953 203.057 658.502 203.452 662.013 203.868L662.484 199.896C658.954 199.478 655.386 199.081 651.781 198.706L651.367 202.684ZM672.749 205.223C676.315 205.701 679.84 206.201 683.326 206.723L683.918 202.767C680.412 202.242 676.866 201.739 673.28 201.259L672.749 205.223ZM694.031 208.416C697.579 209.008 701.084 209.622 704.546 210.26L705.27 206.326C701.786 205.684 698.258 205.066 694.689 204.471L694.031 208.416ZM715.185 212.316C718.717 213.032 722.202 213.771 725.64 214.535L726.507 210.63C723.044 209.861 719.535 209.116 715.98 208.396L715.185 212.316ZM736.172 216.98C739.686 217.832 743.149 218.709 746.562 219.611L747.583 215.743C744.144 214.835 740.655 213.951 737.115 213.092L736.172 216.98ZM756.938 222.47C760.43 223.473 763.865 224.502 767.245 225.556L768.436 221.737C765.027 220.674 761.562 219.637 758.043 218.626L756.938 222.47ZM777.412 228.855C780.872 230.024 784.27 231.219 787.608 232.44L788.982 228.684C785.613 227.451 782.183 226.245 778.692 225.065L777.412 228.855ZM797.598 236.243C800.98 237.581 804.294 238.947 807.543 240.338L809.118 236.662C805.835 235.255 802.486 233.876 799.07 232.524L797.598 236.243ZM817.37 244.719C820.648 246.239 823.854 247.786 826.988 249.359L828.782 245.784C825.611 244.192 822.368 242.627 819.052 241.09L817.37 244.719ZM836.507 254.334C839.707 256.075 842.825 257.843 845.861 259.637L847.896 256.193C844.818 254.375 841.659 252.584 838.419 250.82L836.507 254.334ZM854.972 265.25C858.014 267.205 860.966 269.186 863.829 271.191L866.124 267.914C863.217 265.878 860.22 263.868 857.134 261.885L854.972 265.25ZM872.485 277.53C875.374 279.744 878.161 281.984 880.846 284.245L883.423 281.186C880.69 278.884 877.855 276.606 874.918 274.355L872.485 277.53ZM888.86 291.334C891.518 293.805 894.06 296.299 896.49 298.811L899.365 296.03C896.886 293.466 894.293 290.924 891.585 288.405L888.86 291.334ZM903.689 306.687C906.057 309.432 908.295 312.194 910.406 314.969L913.59 312.547C911.428 309.706 909.139 306.88 906.718 304.074L903.689 306.687ZM916.577 323.657C918.574 326.677 920.424 329.708 922.132 332.742L925.618 330.78C923.863 327.661 921.962 324.55 919.914 321.451L916.577 323.657ZM926.992 342.204C928.515 345.478 929.874 348.75 931.074 352.012L934.828 350.632C933.59 347.263 932.188 343.89 930.619 340.517L926.992 342.204ZM934.29 362.117C935.224 365.585 935.978 369.034 936.555 372.456L940.5 371.79C939.9 368.24 939.119 364.666 938.153 361.078L934.29 362.117ZM937.789 382.965C938.022 386.536 938.061 390.067 937.911 393.548L941.907 393.72C942.064 390.093 942.023 386.418 941.78 382.705L937.789 382.965ZM936.863 404.054C936.31 407.556 935.558 410.992 934.612 414.353L938.462 415.437C939.452 411.924 940.237 408.333 940.814 404.678L936.863 404.054ZM931.146 424.317C930.468 425.94 929.741 427.541 928.967 429.118L932.557 430.882C933.367 429.232 934.128 427.556 934.837 425.858L931.146 424.317Z" fill="#F24C4C"/>
</svg>
