<svg width="35" height="33" viewBox="0 0 35 33" fill="none" xmlns="http://www.w3.org/2000/svg">
<path d="M31.6668 0.333344H13.889V5.8889H18.3334V8.11112H3.889C2.00011 8.11112 0.555664 9.55557 0.555664 11.4445V23.6667C0.555664 25.5556 2.00011 27 3.889 27H5.00011V32.6667L12.0001 27H19.4446V19.2222H31.6668C33.5557 19.2222 35.0001 17.7778 35.0001 15.8889V3.66668C35.0001 1.77779 33.5557 0.333344 31.6668 0.333344ZM12.5557 22.4445L12.0001 20.6667H8.55566L7.889 22.4445H5.22233L8.889 12.5556H11.5557L15.2223 22.4445H12.5557ZM29.4446 13.6667V15.8889C28.0001 15.8889 26.4446 15.4445 25.1112 14.7778C23.7779 15.4445 22.2223 15.7778 20.6668 15.8889L20.5557 13.6667C21.3334 13.6667 22.1112 13.5556 22.889 13.3333C21.889 12.3333 21.2223 11.1111 20.889 9.77779H23.2223C23.5557 10.7778 24.2223 11.5556 25.0001 12.2222C26.2223 11.2222 27.0001 9.77779 27.1112 8.11112H20.4446V5.8889H23.7779V3.66668H26.0001V5.8889H29.6668L29.7779 7.00001C29.889 9.33334 29.0001 11.6667 27.3334 13.3333C28.1112 13.5556 28.7779 13.6667 29.4446 13.6667Z" fill="#F24C4C"/>
</svg>
