<svg width="11" height="28" viewBox="0 0 11 28" fill="none" xmlns="http://www.w3.org/2000/svg">
<path d="M8.50013 0.666656C7.83709 0.666656 7.2012 0.930048 6.73236 1.39889C6.26352 1.86773 6.00013 2.50362 6.00013 3.16666C6.00013 3.8297 6.26352 4.46558 6.73236 4.93442C7.2012 5.40326 7.83709 5.66666 8.50013 5.66666C9.16317 5.66666 9.79906 5.40326 10.2679 4.93442C10.7367 4.46558 11.0001 3.8297 11.0001 3.16666C11.0001 2.50362 10.7367 1.86773 10.2679 1.39889C9.79906 0.930048 9.16317 0.666656 8.50013 0.666656ZM7.90013 8.61666C5.9168 8.78332 0.500129 13.1 0.500129 13.1C0.166796 13.35 0.266797 13.3333 0.533463 13.8C0.80013 14.25 0.766796 14.2833 1.08346 14.0667C1.4168 13.85 1.9668 13.5 2.88346 12.9333C6.4168 10.6667 3.45013 15.9 1.93346 24.7167C1.33346 29.0833 5.2668 26.8333 6.28346 26.1667C7.28346 25.5167 9.9668 23.6667 10.2335 23.4833C10.6001 23.2333 10.3335 23.0333 10.0501 22.6167C9.85013 22.3333 9.65013 22.5333 9.65013 22.5333C8.5668 23.25 6.58346 24.75 6.3168 23.8C6.00013 22.85 8.03346 16.3333 9.15013 11.85C9.33346 10.7833 9.83346 8.44999 7.90013 8.61666Z" fill="#F24C4C"/>
</svg>
