<svg width="40" height="40" viewBox="0 0 40 40" fill="none" xmlns="http://www.w3.org/2000/svg">
<path d="M21.6663 35L24.9997 33.3333L28.333 35V23.3333H21.6663V35ZM28.333 15V11.6667L24.9997 13.3333L21.6663 11.6667V15L18.333 16.6667L21.6663 18.3333V21.6667L24.9997 20L28.333 21.6667V18.3333L31.6663 16.6667L28.333 15ZM33.333 5H6.66634C5.78229 5 4.93444 5.35119 4.30932 5.97631C3.6842 6.60143 3.33301 7.44928 3.33301 8.33333V25C3.33301 25.8841 3.6842 26.7319 4.30932 27.357C4.93444 27.9821 5.78229 28.3333 6.66634 28.3333H18.333V25H6.66634V8.33333H33.333V25H31.6663V28.3333H33.333C34.2171 28.3333 35.0649 27.9821 35.69 27.357C36.3152 26.7319 36.6663 25.8841 36.6663 25V8.33333C36.6663 7.44928 36.3152 6.60143 35.69 5.97631C35.0649 5.35119 34.2171 5 33.333 5ZM18.333 13.3333H8.33301V10H18.333V13.3333ZM14.9997 18.3333H8.33301V15H14.9997V18.3333ZM18.333 23.3333H8.33301V20H18.333V23.3333Z" fill="#F24C4C"/>
</svg>
