<svg width="40" height="40" viewBox="0 0 40 40" fill="none" xmlns="http://www.w3.org/2000/svg">
<path d="M30.8946 21.4306L30.7895 22.2716L31.4556 22.7956L34.5117 25.1999L31.7561 29.9672L28.1635 28.51L27.3667 28.1868L26.6852 28.7111C25.9052 29.311 25.119 29.7887 24.2108 30.1635L23.4163 30.4913L23.2975 31.3426L22.7635 35.1667H17.2359L16.702 31.3426L16.5812 30.4778L15.7697 30.1558C14.8856 29.8049 14.1069 29.3207 13.3143 28.7111L12.6327 28.1868L11.8359 28.51L8.2434 29.9672L5.48774 25.1999L8.54387 22.7956L9.20993 22.2716L9.10482 21.4306C9.04163 20.9251 8.99973 20.4611 8.99973 20C8.99973 19.537 9.0419 19.0545 9.10613 18.5086L9.20533 17.6654L8.53341 17.1463L5.49038 14.7955L8.24444 10.031L11.8407 11.4753L12.6242 11.79L13.2997 11.2833C14.1018 10.6818 14.8841 10.1957 15.7697 9.84425L16.5812 9.52219L16.702 8.65743L17.2359 4.83334H22.7635L23.2975 8.65743L23.4182 9.52219L24.2298 9.84425C25.1154 10.1957 25.8976 10.6818 26.6997 11.2833L27.3752 11.79L28.1587 11.4753L31.755 10.031L34.5091 14.7955L31.4661 17.1463L30.7941 17.6654L30.8933 18.5086C30.9576 19.0545 30.9997 19.537 30.9997 20C30.9997 20.4611 30.9578 20.9251 30.8946 21.4306Z" stroke="#F24C4C" stroke-width="3"/>
<circle cx="20" cy="20" r="4.5" stroke="#F24C4C" stroke-width="3"/>
</svg>
