<svg width="43" height="43" viewBox="0 0 43 43" fill="none" xmlns="http://www.w3.org/2000/svg">
<path d="M30.3584 4.73501H24.9834V8.31834H30.3584V36.985H12.4417V8.31834H17.8167V4.73501H12.4417C11.4914 4.73501 10.5799 5.11253 9.90793 5.78454C9.23593 6.45655 8.8584 7.36798 8.8584 8.31834V36.985C8.8584 37.9354 9.23593 38.8468 9.90793 39.5188C10.5799 40.1908 11.4914 40.5683 12.4417 40.5683H30.3584C31.3088 40.5683 32.2202 40.1908 32.8922 39.5188C33.5642 38.8468 33.9417 37.9354 33.9417 36.985V8.31834C33.9417 7.36798 33.5642 6.45655 32.8922 5.78454C32.2202 5.11253 31.3088 4.73501 30.3584 4.73501ZM21.4001 11.9017C22.3504 11.9017 23.2619 12.2792 23.9339 12.9512C24.6059 13.6232 24.9834 14.5346 24.9834 15.485C24.9834 16.4354 24.6059 17.3468 23.9339 18.0188C23.2619 18.6908 22.3504 19.0683 21.4001 19.0683C20.4497 19.0683 19.5383 18.6908 18.8663 18.0188C18.1943 17.3468 17.8167 16.4354 17.8167 15.485C17.8167 14.5346 18.1943 13.6232 18.8663 12.9512C19.5383 12.2792 20.4497 11.9017 21.4001 11.9017ZM28.5667 26.235H14.2334V24.4433C14.2334 22.0604 19.0171 20.86 21.4001 20.86C23.783 20.86 28.5667 22.0604 28.5667 24.4433V26.235ZM28.5667 31.61H14.2334V29.8183H28.5667V31.61ZM21.4001 35.1933H14.2334V33.4017H21.4001V35.1933ZM23.1917 8.31834H19.6084V1.15167H23.1917V8.31834Z" fill="#F24C4C"/>
</svg>
